# xmcd
#
# Track frame offsets:
#	150
#	12975
#	28415
#	42078
#	54065
#	67855
#	84405
#	98158
#	112158
#	121945
#
# Disc length: 1859 seconds
#
# Revision: 1
# Processed by: cddbd v1.4PL0 Copyright (c) Steve Scherf et al.
# Submitted via: audiograbber 1.80.04
#
DISCID=7707410a
DTITLE=Mario Martin - Keep It On The Country Side
DYEAR=1900
DGENRE=Bluegrass
TTITLE0=Keep It On The Country Side
TTITLE1=It takes A Lotta Heart
TTITLE2=Another Nail In The Wall
TTITLE3=Take It To A Honky Tonk
TTITLE4=While I Was Dreamin' Of You
TTITLE5=Don't Hurry Sundown
TTITLE6=I Never Expected To See You
TTITLE7=Best Of The Hurtin'
TTITLE8=Wasted Time, Wasted Tears
TTITLE9=She Just Wanted To Go To Texas
EXTD=
EXTT0=
EXTT1=
EXTT2=
EXTT3=
EXTT4=
EXTT5=
EXTT6=
EXTT7=
EXTT8=
EXTT9=
PLAYORDER=
